# xmcd
#
# Track frame offsets:
# 150
# 17965
# 35760
# 53577
# 82657
#
# Disc length: 2114 seconds
#
# Revision: 1
# Processed by: cddbd v1.5.1PL0 Copyright (c) Steve Scherf et al.
# Submitted via: Easy CD Ripper v2.35
#
DISCID=31084005
DTITLE=Foxy Brown - Hot Spot
DYEAR=1999
DGENRE=Blues
TTITLE0=Hot Sprt (LP) - Foxy Brown
TTITLE1=Big Bad Manna - Foxy Brown
TTITLE2=Hot Spot (Instrumental) - Foxy Brown
TTITLE3=Hot Spot (Radio) - Foxy Brown
TTITLE4=data - Foxy Brown
EXTD=
EXTT0=
EXTT1=
EXTT2=
EXTT3=
EXTT4=
PLAYORDER=
